# xmcd
# 
# Track frame offsets:
#     150
#     14612
#     33945
#     49392
#     71070
#     82215
#     100720
#     119117
#     133912
#     152765
# 
# Disc length: 2187
# 
# Revision: 5
# Processed by: cddbd v1.5.2PL0 Copyright (c) Steve Scherf et al.
# Submitted via: BonkEnc v1.0.15
# 
DISCID=9208890a
DTITLE=Elis Regina - Elis (1977)
DYEAR=1977
DGENRE=Other
TTITLE0=Caxangá
TTITLE1=Colagem
TTITLE2=Vecchio novo
TTITLE3=Morro velho
TTITLE4=Qualquer dia
TTITLE5=Romaria
TTITLE6=A dama do apocalipse
TTITLE7=Cartomante
TTITLE8=Sentimental eu fico
TTITLE9=Transversal do tempo
EXTD=YEAR: 1977
EXTT0=
EXTT1=
EXTT2=
EXTT3=
EXTT4=
EXTT5=
EXTT6=
EXTT7=
EXTT8=
EXTT9=
PLAYORDER=
